<svg width="20" height="19" viewBox="0 0 20 19" fill="none" xmlns="http://www.w3.org/2000/svg">
<path d="M15.7426 9.62737C15.4235 9.47222 15.0015 9.35229 14.4765 9.2676C14.983 9.10582 15.3826 8.9245 15.6751 8.72364C15.9442 8.55823 16.177 8.33989 16.3593 8.08186C16.5416 7.82383 16.6697 7.53148 16.7357 7.22252C16.8017 6.91356 16.8043 6.59441 16.7433 6.28442C16.6823 5.97442 16.5591 5.68003 16.381 5.41907C16.2029 5.15812 15.9737 4.93603 15.7072 4.76626C15.4408 4.59649 15.1426 4.48258 14.8309 4.43142C14.5191 4.38026 14.2002 4.39292 13.8935 4.46864C13.5868 4.54435 13.2986 4.68154 13.0464 4.8719C12.7511 5.06608 12.4366 5.37186 12.1024 5.78238C12.2152 5.26448 12.2583 4.82753 12.2322 4.47836C12.186 3.861 11.8965 3.28724 11.4274 2.88332C10.9582 2.4794 10.3478 2.2784 9.73044 2.32453C9.11307 2.37067 8.53932 2.66017 8.1354 3.12933C7.73147 3.5985 7.53047 4.20891 7.57661 4.82628C7.6027 5.17544 7.71025 5.60114 7.89873 6.09652C7.50722 5.74024 7.15076 5.48461 6.82988 5.33647C6.55224 5.1857 6.24689 5.09287 5.93232 5.06358C5.61774 5.0343 5.3005 5.06918 4.9998 5.1661C4.6991 5.26303 4.42121 5.41999 4.18295 5.62748C3.9447 5.83496 3.75105 6.08865 3.61372 6.37318C3.4764 6.65771 3.39826 6.96715 3.38404 7.28276C3.36982 7.59838 3.41982 7.91359 3.53101 8.20932C3.6422 8.50504 3.81226 8.77511 4.03089 9.00318C4.24952 9.23124 4.51218 9.41255 4.80294 9.53613C5.12662 9.69094 5.54866 9.81086 6.06907 9.89589C5.56708 10.0573 5.16755 10.2387 4.87048 10.4399C4.44694 10.7301 4.13093 11.1519 3.97138 11.64C3.81183 12.128 3.81764 12.6551 3.98793 13.1395C4.15821 13.6239 4.48346 14.0386 4.9133 14.3195C5.34314 14.6003 5.85359 14.7316 6.3656 14.693C6.77248 14.6627 7.16386 14.5241 7.49911 14.2916C7.79441 14.0974 8.1089 13.7916 8.44311 13.3811C8.33035 13.899 8.28728 14.336 8.31337 14.6851C8.35951 15.3025 8.649 15.8763 9.11817 16.2802C9.58734 16.6841 10.1977 16.8851 10.8151 16.839C11.4325 16.7928 12.0062 16.5033 12.4102 16.0342C12.8141 15.565 13.0151 14.9546 12.9689 14.3372C12.9428 13.9881 12.8353 13.5624 12.6468 13.067C13.0383 13.4233 13.3948 13.6789 13.7157 13.827C14.0818 14.0072 14.4894 14.086 14.8962 14.0555C15.4083 14.0176 15.8936 13.8119 16.2769 13.4702C16.6602 13.1286 16.9202 12.6702 17.0166 12.1658C17.113 11.6615 17.0404 11.1394 16.8101 10.6805C16.5798 10.2216 16.2046 9.85147 15.7426 9.62737ZM8.76656 9.69431C8.7443 9.39641 8.81087 9.09859 8.95787 8.83853C9.10486 8.57847 9.32567 8.36783 9.59238 8.23326C9.85908 8.09869 10.1597 8.04623 10.4562 8.08252C10.7527 8.1188 11.0318 8.2422 11.2582 8.4371C11.4846 8.63201 11.6481 8.88967 11.7281 9.1775C11.808 9.46534 11.8008 9.77041 11.7074 10.0542C11.614 10.3379 11.4385 10.5876 11.2032 10.7716C10.9678 10.9556 10.6832 11.0657 10.3853 11.088C9.98628 11.116 9.59231 10.9853 9.28915 10.7243C8.98599 10.4633 8.79817 10.0931 8.76656 9.69431ZM13.5099 5.54638C13.8418 5.32073 14.2497 5.23616 14.644 5.31128C15.0382 5.3864 15.3865 5.61505 15.6121 5.94694C15.8378 6.27883 15.9224 6.68677 15.8472 7.08101C15.7721 7.47525 15.5435 7.8235 15.2116 8.04916C14.7264 8.37457 13.7912 8.66477 12.4995 8.88522C12.3625 8.4436 12.0959 8.05335 11.7343 7.76513C12.4144 6.6403 13.0253 5.87864 13.5099 5.54638ZM9.79183 3.14611C10.1909 3.1181 10.5849 3.24881 10.888 3.50981C11.1912 3.77081 11.379 4.14098 11.4106 4.53976C11.4541 5.12171 11.2361 6.07431 10.7843 7.30601C10.3326 7.20198 9.85993 7.2373 9.4287 7.40731C8.7988 6.25645 8.44167 5.34683 8.39818 4.76488C8.37017 4.36583 8.50089 3.97186 8.76189 3.6687C9.02289 3.36554 9.39305 3.17772 9.79183 3.14611ZM4.45931 6.7804C4.63405 6.42126 4.94335 6.14551 5.3201 6.01295C5.69685 5.8804 6.11068 5.90174 6.4718 6.07235C7.00043 6.32888 7.71775 6.99128 8.55752 8.00253C8.24278 8.3413 8.03712 8.76683 7.96721 9.22393C6.65718 9.1979 5.68915 9.04993 5.16103 8.80024C4.98219 8.71386 4.82214 8.59304 4.69005 8.44472C4.55796 8.2964 4.45641 8.12348 4.39123 7.93587C4.32605 7.74825 4.29852 7.54962 4.3102 7.35135C4.32188 7.15308 4.37255 6.95906 4.45931 6.7804ZM7.03562 13.6171C6.70374 13.8428 6.2958 13.9273 5.90156 13.8522C5.50732 13.7771 5.15906 13.5484 4.93341 13.2166C4.70775 12.8847 4.62318 12.4767 4.6983 12.0825C4.77342 11.6882 5.00208 11.34 5.33396 11.1143C5.81911 10.7889 6.75439 10.4987 8.046 10.2783C8.18307 10.7199 8.4497 11.1101 8.81129 11.3984C8.13115 12.5232 7.52026 13.2849 7.03562 13.6171ZM10.7537 16.0174C10.3547 16.0454 9.96069 15.9147 9.65753 15.6537C9.35437 15.3927 9.16655 15.0225 9.13494 14.6237C9.09145 14.0418 9.30942 13.0892 9.76126 11.8575C10.213 11.9615 10.6856 11.9262 11.1169 11.7562C11.7467 12.907 12.1039 13.8167 12.1474 14.3986C12.1754 14.7977 12.0447 15.1916 11.7837 15.4948C11.5227 15.798 11.1525 15.9858 10.7537 16.0174ZM16.0862 12.3831C15.9115 12.7422 15.6022 13.018 15.2254 13.1505C14.8487 13.2831 14.4349 13.2618 14.0738 13.0911C13.5451 12.8346 12.8278 12.1722 11.988 11.161C12.3028 10.8222 12.5084 10.3967 12.5783 9.93957C13.8884 9.96559 14.8564 10.1136 15.3845 10.3633C15.5634 10.4496 15.7234 10.5705 15.8555 10.7188C15.9876 10.8671 16.0891 11.04 16.1543 11.2276C16.2195 11.4152 16.247 11.6139 16.2354 11.8121C16.2237 12.0104 16.173 12.2044 16.0862 12.3831Z" fill="white" fill-opacity="0.7"/>
</svg>
