<svg width="320" height="261" viewBox="0 0 320 261" fill="none" xmlns="http://www.w3.org/2000/svg">
<rect y="0.807861" width="320" height="260" rx="10" fill="url(#paint0_linear_602_2)"/>
<path fill-rule="evenodd" clip-rule="evenodd" d="M128.629 0.808105C123.065 7.58911 119.733 16.2187 119.733 25.6144C119.733 47.4331 137.701 65.1207 159.866 65.1207C182.032 65.1207 200 47.4331 200 25.6144C200 16.2187 196.668 7.58911 191.104 0.808105H128.629Z" fill="#EA04FF" fill-opacity="0.23"/>
<path fill-rule="evenodd" clip-rule="evenodd" d="M92.8915 0.807861C89.3948 9.18475 87.4666 18.3591 87.4666 27.9769C87.4666 67.4825 120.001 99.5081 160.133 99.5081C200.266 99.5081 232.8 67.4825 232.8 27.9769C232.8 18.3591 230.872 9.18475 227.375 0.807861H92.8915Z" fill="#F588FF" fill-opacity="0.5"/>
<path fill-rule="evenodd" clip-rule="evenodd" d="M74.7245 0.808105C71.9167 9.36741 70.3999 18.4978 70.3999 27.977C70.3999 76.761 110.575 116.308 160.133 116.308C209.692 116.308 249.867 76.761 249.867 27.977C249.867 18.4978 248.35 9.36741 245.542 0.808105H74.7245Z" fill="#F58DFF" fill-opacity="0.3"/>
<g clip-path="url(#clip0_602_2)">
<path d="M303.075 51.4679C302.776 51.4015 302.398 51.3853 301.941 51.4192C302.334 51.1822 302.633 50.9502 302.838 50.7232C303.031 50.5306 303.182 50.3008 303.284 50.0479C303.385 49.795 303.434 49.5241 303.428 49.2517C303.421 48.9792 303.36 48.711 303.246 48.4631C303.133 48.2152 302.971 47.9928 302.769 47.8095C302.568 47.6261 302.331 47.4856 302.074 47.3965C301.816 47.3073 301.543 47.2713 301.271 47.2907C301 47.3102 300.735 47.3845 300.492 47.5094C300.25 47.6342 300.036 47.807 299.862 48.0171C299.653 48.2391 299.451 48.5585 299.252 48.9697C299.243 48.5127 299.192 48.1374 299.1 47.8497C298.938 47.341 298.581 46.9175 298.106 46.6724C297.632 46.4273 297.08 46.3807 296.571 46.5428C296.062 46.705 295.639 47.0626 295.394 47.537C295.148 48.0114 295.102 48.5637 295.264 49.0724C295.356 49.3602 295.531 49.6958 295.788 50.0738C295.389 49.8531 295.038 49.7099 294.739 49.6498C294.476 49.5788 294.202 49.562 293.932 49.6003C293.662 49.6386 293.403 49.7313 293.17 49.8728C292.937 50.0142 292.735 50.2014 292.577 50.4232C292.418 50.6449 292.307 50.8964 292.248 51.1626C292.19 51.4288 292.186 51.704 292.238 51.9717C292.289 52.2393 292.394 52.4938 292.546 52.7197C292.699 52.9456 292.895 53.1382 293.124 53.2858C293.353 53.4334 293.61 53.533 293.879 53.5786C294.181 53.6438 294.559 53.66 295.013 53.6273C294.624 53.8631 294.325 54.0951 294.116 54.3233C293.819 54.6515 293.638 55.0686 293.602 55.51C293.565 55.9514 293.675 56.3924 293.915 56.7648C294.155 57.1371 294.511 57.4201 294.928 57.5698C295.344 57.7195 295.799 57.7275 296.221 57.5928C296.556 57.4861 296.857 57.2915 297.091 57.0294C297.3 56.8074 297.503 56.488 297.701 56.0767C297.71 56.5338 297.762 56.909 297.853 57.1968C298.015 57.7055 298.373 58.129 298.847 58.3741C299.322 58.6192 299.874 58.6658 300.383 58.5036C300.892 58.3415 301.315 57.9839 301.56 57.5095C301.805 57.0351 301.852 56.4828 301.69 55.974C301.598 55.6863 301.423 55.3506 301.166 54.9727C301.565 55.1933 301.915 55.3365 302.214 55.3967C302.557 55.4746 302.915 55.4593 303.25 55.3523C303.673 55.2181 304.039 54.9485 304.292 54.5853C304.545 54.222 304.672 53.7853 304.652 53.3429C304.632 52.9005 304.466 52.477 304.181 52.1381C303.896 51.7991 303.508 51.5635 303.075 51.4679ZM297.236 52.9188C297.157 52.6733 297.154 52.4102 297.225 52.1626C297.296 51.915 297.44 51.6941 297.636 51.5279C297.833 51.3617 298.075 51.2575 298.331 51.2287C298.587 51.1998 298.846 51.2476 299.075 51.3658C299.304 51.4841 299.492 51.6676 299.617 51.8931C299.742 52.1186 299.797 52.376 299.775 52.6328C299.753 52.8895 299.656 53.134 299.495 53.3355C299.335 53.5369 299.118 53.6862 298.872 53.7644C298.543 53.8677 298.187 53.8368 297.88 53.6785C297.574 53.5201 297.342 53.2471 297.236 52.9188ZM300.386 48.4903C300.619 48.2346 300.945 48.0821 301.291 48.0663C301.636 48.0505 301.974 48.1727 302.23 48.4061C302.486 48.6394 302.638 48.9648 302.654 49.3106C302.67 49.6563 302.547 49.9942 302.314 50.2499C301.972 50.62 301.245 51.0504 300.206 51.4936C300.003 51.1505 299.701 50.8764 299.34 50.7069C299.686 49.6272 300.046 48.866 300.386 48.4903ZM296.787 47.2199C297.116 47.1166 297.473 47.1475 297.779 47.3058C298.086 47.4642 298.317 47.7372 298.423 48.0655C298.576 48.545 298.584 49.3879 298.451 50.5116C298.051 50.5146 297.662 50.6388 297.334 50.8676C296.575 50.028 296.094 49.3362 295.941 48.8567C295.838 48.5275 295.869 48.1708 296.027 47.8642C296.185 47.5577 296.458 47.3261 296.787 47.2199ZM293.039 51.3352C293.114 50.999 293.318 50.7058 293.608 50.5192C293.898 50.3327 294.249 50.2678 294.586 50.3388C295.081 50.4483 295.815 50.8607 296.722 51.5412C296.526 51.8884 296.438 52.2865 296.471 52.684C295.367 52.9241 294.525 52.9935 294.032 52.8896C293.865 52.8529 293.706 52.7835 293.566 52.6855C293.425 52.5874 293.305 52.4626 293.213 52.3183C293.121 52.1739 293.058 52.0127 293.028 51.8441C292.998 51.6754 293.002 51.5025 293.039 51.3352ZM296.568 56.5562C296.334 56.8118 296.009 56.9644 295.663 56.9801C295.317 56.9959 294.98 56.8737 294.724 56.6404C294.468 56.4071 294.316 56.0817 294.3 55.7359C294.284 55.3901 294.406 55.0522 294.64 54.7965C294.982 54.4265 295.708 53.996 296.748 53.5528C296.951 53.896 297.253 54.1701 297.614 54.3396C297.268 55.4193 296.908 56.1805 296.568 56.5562ZM300.167 57.8266C299.838 57.9299 299.481 57.899 299.175 57.7406C298.868 57.5823 298.637 57.3092 298.53 56.981C298.377 56.5014 298.37 55.6586 298.503 54.5349C298.903 54.5318 299.292 54.4077 299.62 54.1788C300.378 55.0185 300.86 55.7102 301.013 56.1898C301.116 56.519 301.085 56.8757 300.927 57.1822C300.768 57.4888 300.495 57.7204 300.167 57.8266ZM303.915 53.7112C303.84 54.0475 303.635 54.3407 303.346 54.5272C303.056 54.7138 302.705 54.7786 302.368 54.7077C301.873 54.5981 301.139 54.1858 300.232 53.5053C300.428 53.1581 300.516 52.76 300.483 52.3625C301.587 52.1224 302.429 52.053 302.922 52.1569C303.089 52.1936 303.248 52.263 303.388 52.361C303.529 52.459 303.648 52.5838 303.741 52.7282C303.833 52.8726 303.896 53.0337 303.925 53.2024C303.955 53.3711 303.952 53.544 303.915 53.7112Z" fill="white" fill-opacity="0.9"/>
</g>
<path d="M260.865 203.966C260.59 203.832 260.226 203.728 259.773 203.655C260.21 203.516 260.555 203.359 260.807 203.186C261.039 203.044 261.24 202.855 261.397 202.633C261.554 202.41 261.665 202.158 261.722 201.892C261.779 201.625 261.781 201.35 261.728 201.082C261.676 200.815 261.569 200.561 261.416 200.336C261.262 200.111 261.065 199.919 260.835 199.773C260.605 199.627 260.348 199.528 260.079 199.484C259.81 199.44 259.535 199.451 259.27 199.516C259.006 199.582 258.757 199.7 258.54 199.864C258.285 200.032 258.014 200.295 257.726 200.649C257.823 200.203 257.86 199.826 257.838 199.525C257.798 198.992 257.548 198.497 257.143 198.149C256.739 197.801 256.212 197.627 255.68 197.667C255.147 197.707 254.652 197.957 254.304 198.361C253.956 198.766 253.782 199.292 253.822 199.825C253.845 200.126 253.937 200.493 254.1 200.92C253.762 200.613 253.455 200.393 253.178 200.265C252.939 200.135 252.675 200.055 252.404 200.029C252.133 200.004 251.859 200.034 251.6 200.118C251.34 200.201 251.101 200.337 250.895 200.516C250.69 200.695 250.523 200.914 250.404 201.159C250.286 201.404 250.218 201.671 250.206 201.943C250.194 202.216 250.237 202.488 250.333 202.743C250.429 202.998 250.575 203.231 250.764 203.427C250.953 203.624 251.179 203.78 251.43 203.887C251.709 204.021 252.073 204.124 252.522 204.197C252.089 204.337 251.744 204.493 251.488 204.666C251.123 204.917 250.85 205.281 250.713 205.702C250.575 206.123 250.58 206.577 250.727 206.995C250.874 207.413 251.154 207.77 251.525 208.013C251.896 208.255 252.336 208.368 252.778 208.335C253.129 208.309 253.466 208.189 253.755 207.989C254.01 207.821 254.281 207.557 254.569 207.203C254.472 207.65 254.435 208.027 254.458 208.328C254.497 208.861 254.747 209.355 255.152 209.704C255.556 210.052 256.083 210.225 256.615 210.186C257.148 210.146 257.643 209.896 257.991 209.492C258.339 209.087 258.513 208.56 258.473 208.028C258.451 207.727 258.358 207.36 258.195 206.932C258.533 207.24 258.84 207.46 259.117 207.588C259.433 207.743 259.784 207.811 260.135 207.785C260.577 207.752 260.996 207.575 261.326 207.28C261.657 206.986 261.881 206.59 261.964 206.155C262.047 205.72 261.985 205.27 261.786 204.874C261.587 204.478 261.264 204.159 260.865 203.966ZM254.848 204.023C254.829 203.767 254.887 203.51 255.013 203.285C255.14 203.061 255.331 202.879 255.561 202.763C255.791 202.647 256.05 202.602 256.306 202.633C256.562 202.665 256.802 202.771 256.998 202.939C257.193 203.107 257.334 203.329 257.403 203.578C257.472 203.826 257.466 204.089 257.385 204.334C257.304 204.579 257.153 204.794 256.95 204.953C256.747 205.111 256.502 205.206 256.245 205.225C255.9 205.25 255.561 205.137 255.299 204.912C255.038 204.687 254.876 204.367 254.848 204.023ZM258.94 200.446C259.226 200.251 259.578 200.178 259.918 200.243C260.258 200.308 260.558 200.505 260.753 200.791C260.947 201.078 261.02 201.429 260.956 201.769C260.891 202.11 260.694 202.41 260.407 202.605C259.989 202.885 259.182 203.135 258.068 203.326C257.95 202.945 257.72 202.608 257.408 202.36C257.995 201.389 258.522 200.732 258.94 200.446ZM255.733 198.376C256.077 198.351 256.417 198.464 256.678 198.689C256.94 198.914 257.102 199.234 257.129 199.578C257.166 200.08 256.978 200.901 256.589 201.964C256.199 201.874 255.792 201.904 255.42 202.051C254.876 201.058 254.568 200.274 254.531 199.772C254.507 199.428 254.619 199.088 254.844 198.826C255.07 198.565 255.389 198.403 255.733 198.376ZM251.133 201.51C251.284 201.2 251.551 200.963 251.876 200.848C252.201 200.734 252.558 200.752 252.869 200.9C253.325 201.121 253.944 201.692 254.668 202.564C254.397 202.856 254.219 203.223 254.159 203.618C253.029 203.595 252.194 203.468 251.739 203.252C251.584 203.178 251.446 203.074 251.332 202.946C251.219 202.818 251.131 202.669 251.075 202.507C251.019 202.345 250.995 202.174 251.005 202.003C251.015 201.832 251.059 201.664 251.133 201.51ZM253.356 207.407C253.069 207.601 252.717 207.674 252.377 207.61C252.037 207.545 251.737 207.348 251.542 207.061C251.348 206.775 251.275 206.423 251.34 206.083C251.404 205.743 251.602 205.443 251.888 205.248C252.306 204.968 253.113 204.717 254.227 204.527C254.345 204.908 254.575 205.245 254.887 205.493C254.3 206.463 253.774 207.12 253.356 207.407ZM256.562 209.477C256.218 209.501 255.878 209.389 255.617 209.163C255.355 208.938 255.193 208.619 255.166 208.275C255.129 207.773 255.317 206.952 255.706 205.889C256.096 205.979 256.504 205.948 256.876 205.802C257.419 206.794 257.727 207.579 257.764 208.081C257.789 208.425 257.676 208.765 257.451 209.026C257.226 209.288 256.906 209.45 256.562 209.477ZM261.162 206.343C261.011 206.652 260.744 206.89 260.419 207.004C260.094 207.119 259.737 207.1 259.426 206.953C258.97 206.732 258.351 206.161 257.627 205.288C257.898 204.996 258.076 204.629 258.136 204.235C259.266 204.257 260.101 204.385 260.556 204.6C260.711 204.675 260.849 204.779 260.963 204.907C261.077 205.035 261.164 205.184 261.22 205.346C261.277 205.508 261.3 205.679 261.29 205.85C261.28 206.021 261.237 206.188 261.162 206.343Z" fill="white" fill-opacity="0.7"/>
<path d="M30.1555 117.772C29.9147 117.583 29.5808 117.405 29.1537 117.238C29.6102 117.194 29.9801 117.114 30.2633 116.998C30.5204 116.908 30.7564 116.766 30.9572 116.582C31.1579 116.397 31.3191 116.174 31.4311 115.926C31.5431 115.678 31.6034 115.409 31.6085 115.137C31.6137 114.864 31.5634 114.593 31.4609 114.341C31.3583 114.088 31.2056 113.859 31.0119 113.668C30.8183 113.476 30.5877 113.326 30.3342 113.226C30.0807 113.126 29.8096 113.078 29.5372 113.086C29.2648 113.094 28.9969 113.157 28.7496 113.272C28.4653 113.382 28.1444 113.582 27.7878 113.867C27.9773 113.451 28.0933 113.091 28.1349 112.792C28.2086 112.263 28.0691 111.726 27.7473 111.3C27.4254 110.874 26.9475 110.593 26.4186 110.52C25.8898 110.446 25.3533 110.585 24.9272 110.907C24.5012 111.229 24.2205 111.707 24.1468 112.236C24.1051 112.535 24.1182 112.914 24.1868 113.366C23.9217 112.994 23.6678 112.713 23.4243 112.53C23.2177 112.352 22.9772 112.218 22.7174 112.136C22.4575 112.054 22.1837 112.026 21.9126 112.053C21.6414 112.08 21.3785 112.161 21.1398 112.293C20.9012 112.424 20.6917 112.603 20.524 112.818C20.3564 113.032 20.2341 113.279 20.1646 113.542C20.095 113.806 20.0797 114.081 20.1195 114.35C20.1593 114.62 20.2535 114.879 20.3962 115.111C20.5389 115.343 20.7273 115.544 20.9499 115.701C21.1945 115.89 21.5284 116.068 21.9516 116.235C21.499 116.279 21.1292 116.359 20.842 116.475C20.4321 116.642 20.0888 116.94 19.8653 117.323C19.6418 117.705 19.5506 118.15 19.6058 118.59C19.6611 119.029 19.8597 119.438 20.1708 119.753C20.482 120.068 20.8883 120.272 21.327 120.333C21.6755 120.382 22.0307 120.336 22.3557 120.201C22.6401 120.091 22.961 119.891 23.3176 119.606C23.1281 120.022 23.0121 120.382 22.9704 120.681C22.8968 121.21 23.0362 121.747 23.3581 122.173C23.6799 122.599 24.1579 122.88 24.6867 122.953C25.2156 123.027 25.7521 122.887 26.1781 122.566C26.6041 122.244 26.8849 121.766 26.9585 121.237C27.0002 120.938 26.9872 120.559 26.9186 120.107C27.1837 120.479 27.4376 120.76 27.6811 120.943C27.9568 121.162 28.2861 121.302 28.6346 121.351C29.0732 121.412 29.5198 121.327 29.9052 121.109C30.2907 120.891 30.5934 120.552 30.7667 120.144C30.9399 119.737 30.9739 119.284 30.8634 118.855C30.7529 118.426 30.5041 118.045 30.1555 117.772ZM24.2624 116.557C24.2979 116.302 24.4084 116.063 24.5797 115.87C24.751 115.678 24.9756 115.54 25.2249 115.476C25.4743 115.411 25.7373 115.421 25.9807 115.506C26.224 115.591 26.4368 115.746 26.5921 115.951C26.7474 116.157 26.8383 116.404 26.8532 116.661C26.8681 116.918 26.8065 117.174 26.676 117.396C26.5455 117.618 26.352 117.797 26.1201 117.909C25.8881 118.021 25.6281 118.062 25.3729 118.027C25.0314 117.978 24.7232 117.796 24.5152 117.52C24.3072 117.245 24.2163 116.899 24.2624 116.557ZM29.0173 113.925C29.3383 113.795 29.6976 113.798 30.0162 113.933C30.3349 114.069 30.5868 114.325 30.7165 114.646C30.8462 114.967 30.8431 115.326 30.7079 115.645C30.5727 115.963 30.3165 116.215 29.9956 116.345C29.5272 116.531 28.6859 116.605 27.5569 116.555C27.5218 116.158 27.3682 115.78 27.1159 115.472C27.8944 114.647 28.5482 114.117 29.0173 113.925ZM26.3206 111.223C26.6621 111.273 26.9704 111.455 27.1784 111.73C27.3863 112.005 27.4772 112.352 27.4311 112.693C27.3617 113.192 27.0043 113.955 26.3988 114.911C26.037 114.741 25.6321 114.685 25.2376 114.75C24.9164 113.664 24.7811 112.833 24.8506 112.334C24.8997 111.993 25.0818 111.684 25.357 111.476C25.6323 111.268 25.9786 111.177 26.3206 111.223ZM21.1626 113.315C21.3754 113.044 21.6864 112.868 22.0282 112.825C22.37 112.782 22.7149 112.875 22.9882 113.085C23.3871 113.398 23.8711 114.087 24.3946 115.092C24.0675 115.321 23.8166 115.642 23.6743 116.014C22.5747 115.754 21.7856 115.452 21.3859 115.146C21.2509 115.04 21.138 114.909 21.0537 114.76C20.9694 114.611 20.9153 114.447 20.8946 114.277C20.8738 114.107 20.8868 113.934 20.9328 113.769C20.9788 113.604 21.0569 113.45 21.1626 113.315ZM22.088 119.548C21.7671 119.678 21.4078 119.675 21.0891 119.54C20.7705 119.404 20.5186 119.148 20.3888 118.827C20.2591 118.506 20.2622 118.147 20.3974 117.828C20.5326 117.51 20.7889 117.258 21.1098 117.128C21.5781 116.942 22.4195 116.868 23.5485 116.918C23.5835 117.315 23.7371 117.693 23.9894 118.001C23.211 118.826 22.5571 119.356 22.088 119.548ZM24.7848 122.249C24.4433 122.2 24.135 122.018 23.927 121.743C23.719 121.468 23.6282 121.121 23.6742 120.779C23.7437 120.281 24.1011 119.518 24.7065 118.562C25.0684 118.732 25.4733 118.788 25.8678 118.723C26.189 119.808 26.3242 120.64 26.2548 121.139C26.2056 121.48 26.0236 121.789 25.7483 121.997C25.473 122.205 25.1267 122.296 24.7848 122.249ZM29.9427 120.158C29.7299 120.429 29.4189 120.605 29.0772 120.648C28.7354 120.691 28.3904 120.598 28.1171 120.388C27.7182 120.075 27.2343 119.386 26.7107 118.381C27.0378 118.152 27.2888 117.831 27.431 117.458C28.5307 117.719 29.3197 118.02 29.7194 118.327C29.8545 118.433 29.9673 118.564 30.0517 118.713C30.136 118.862 30.19 119.026 30.2108 119.196C30.2315 119.366 30.2185 119.539 30.1725 119.704C30.1265 119.869 30.0484 120.023 29.9427 120.158Z" fill="white" fill-opacity="0.6"/>
<defs>
<linearGradient id="paint0_linear_602_2" x1="139.467" y1="11.0454" x2="169.819" y2="259.609" gradientUnits="userSpaceOnUse">
<stop stop-color="#F58DFF"/>
<stop offset="1" stop-color="#E900FF"/>
</linearGradient>
<clipPath id="clip0_602_2">
<rect width="15.159" height="15.159" fill="white" transform="translate(288.954 47.6033) rotate(-17.6776)"/>
</clipPath>
</defs>
</svg>
